<svg width="21" height="20" viewBox="0 0 21 20" fill="none" xmlns="http://www.w3.org/2000/svg">
<path d="M9.79199 1.1802V18.8202C9.79199 19.4602 9.20199 19.9402 8.58199 19.8002C4.11199 18.8002 0.791992 14.7902 0.791992 10.0002C0.791992 5.2102 4.11199 1.2002 8.58199 0.200198C9.20199 0.0601984 9.79199 0.540198 9.79199 1.1802ZM11.822 1.1802V7.9902C11.822 8.5402 12.272 8.9902 12.822 8.9902H19.612C20.252 8.9902 20.732 8.4002 20.592 7.7702C19.742 4.0102 16.792 1.0502 13.042 0.200198C12.412 0.0601984 11.822 0.540198 11.822 1.1802ZM11.822 12.0102V18.8202C11.822 19.4602 12.412 19.9402 13.042 19.8002C16.802 18.9502 19.752 15.9802 20.602 12.2202C20.742 11.6002 20.252 11.0002 19.622 11.0002H12.832C12.272 11.0102 11.822 11.4602 11.822 12.0102Z" fill="#7B7B7B"/>
</svg>
