<svg width="30" height="27" viewBox="5 2 30 30" fill="none" xmlns="http://www.w3.org/2000/svg">
<path d="M21.7814 13.326C22.5174 12.59 23.2481 10.8727 20.1814 12.958C15.8241 15.9647 11.5294 18.7873 11.5294 18.7873C11.0874 18.9872 10.6094 19.0957 10.1244 19.1062C9.63932 19.1168 9.15713 19.0292 8.70678 18.8487C6.86678 18.2967 4.71878 17.5607 4.71878 17.5607C4.71878 17.5607 3.25211 16.6393 5.76278 15.658C5.76278 15.658 16.3774 11.302 20.0588 9.76732C21.4694 9.15399 26.2548 7.19132 26.2548 7.19132C26.2548 7.19132 28.4641 6.33132 28.2801 8.41799C28.2188 9.27666 27.7281 12.2847 27.2374 15.5353C26.5001 20.1367 25.7028 25.1687 25.7028 25.1687C25.7028 25.1687 25.5801 26.5793 24.5374 26.8247C23.4213 26.8058 22.3429 26.4175 21.4708 25.7207C21.2254 25.5367 16.8694 22.7753 15.2734 21.426C15.1111 21.316 14.9792 21.1668 14.89 20.9921C14.8009 20.8175 14.7573 20.6231 14.7634 20.4271C14.7695 20.2311 14.8251 20.0398 14.925 19.8711C15.0249 19.7024 15.1659 19.5616 15.3348 19.462C17.5481 17.438 20.1868 14.922 21.7814 13.326Z" fill="#FFFFFF"/>
</svg>
