<svg width="150" height="49" viewBox="0 0 150 49" fill="none" xmlns="http://www.w3.org/2000/svg">
<g clip-path="url(#clip0_305_963)">
<path d="M80.1921 41.1929C80.0472 41.1929 79.9083 41.1351 79.8059 41.0322C79.7034 40.9294 79.6459 40.7899 79.6459 40.6444V25.6377C79.6431 25.5612 79.6559 25.485 79.6835 25.4137C79.7111 25.3424 79.753 25.2775 79.8065 25.223C79.857 25.1708 79.9178 25.1296 79.9848 25.1018C80.0519 25.0741 80.1239 25.0605 80.1965 25.0618H90.2936C90.37 25.0578 90.4463 25.07 90.5177 25.0976C90.589 25.1251 90.6538 25.1674 90.7079 25.2217C90.762 25.276 90.8041 25.341 90.8315 25.4127C90.8589 25.4844 90.8711 25.561 90.8672 25.6377V27.1592C90.8685 27.232 90.8549 27.3043 90.8273 27.3717C90.7996 27.4391 90.7586 27.5 90.7066 27.5508C90.6523 27.6045 90.5877 27.6465 90.5167 27.6742C90.4457 27.702 90.3698 27.7149 90.2936 27.7121H82.744V31.7907H89.7889C89.9408 31.7848 90.089 31.8387 90.2019 31.9409C90.2556 31.9927 90.2977 32.0554 90.3254 32.1249C90.3531 32.1943 90.3657 32.2688 90.3625 32.3435V33.7696C90.3657 33.8443 90.3531 33.9189 90.3254 33.9883C90.2977 34.0577 90.2556 34.1204 90.2019 34.1722C90.089 34.2744 89.9408 34.3283 89.7889 34.3225H82.744V38.5415H90.4772C90.5535 38.5375 90.6298 38.5497 90.7012 38.5773C90.7726 38.6048 90.8374 38.6471 90.8914 38.7014C90.9455 38.7557 90.9876 38.8208 91.015 38.8924C91.0425 38.9641 91.0546 39.0407 91.0507 39.1174V40.6378C91.0522 40.7107 91.0387 40.7831 91.0111 40.8504C90.9834 40.9178 90.9423 40.9788 90.8901 41.0294C90.8361 41.0835 90.7715 41.1258 90.7005 41.1537C90.6294 41.1817 90.5534 41.1946 90.4772 41.1918L80.1921 41.1929Z" fill="#257CFF"/>
<path d="M98.165 41.4234C97.369 41.4404 96.5753 41.3315 95.813 41.1009C95.2394 40.9251 94.7 40.6521 94.2181 40.2935C93.8578 40.0276 93.5468 39.7001 93.2994 39.326C93.1005 39.0035 92.9935 38.7347 92.9782 38.5197C92.9675 38.4452 92.9756 38.3692 93.0018 38.2987C93.0279 38.2282 93.0713 38.1654 93.1279 38.116C93.231 38.0209 93.3658 37.9677 93.5058 37.9668H95.3192C95.3737 37.9658 95.4279 37.9736 95.4798 37.9899C95.5499 38.0227 95.6124 38.0697 95.6634 38.1281C95.8622 38.297 96.0727 38.4736 96.2948 38.6579C96.534 38.8532 96.8005 39.0121 97.0857 39.1296C97.4514 39.2716 97.8419 39.3384 98.2338 39.326C98.8303 39.326 99.3313 39.2068 99.737 38.9684C99.9236 38.8719 100.079 38.7246 100.187 38.5435C100.294 38.3624 100.349 38.1546 100.344 37.9438C100.357 37.6585 100.263 37.3787 100.081 37.1595C99.9056 36.9613 99.5804 36.781 99.1056 36.6186C98.4425 36.4078 97.7681 36.2346 97.0857 36.0998C96.3443 35.9418 95.6269 35.6862 94.9522 35.3396C94.4354 35.0777 93.9992 34.6795 93.6905 34.1877C93.3989 33.6764 93.256 33.0932 93.2782 32.5044C93.3004 31.9157 93.4868 31.345 93.8161 30.8573C94.1751 30.3117 94.7104 29.8623 95.4219 29.5091C96.1335 29.1559 97.0172 28.9793 98.0732 28.9793C98.8041 28.9652 99.5324 29.0705 100.23 29.2908C100.777 29.4631 101.293 29.7224 101.759 30.0587C102.117 30.3173 102.431 30.6321 102.689 30.9911C102.903 31.3063 103.017 31.5791 103.033 31.8095C103.044 31.8829 103.037 31.9579 103.013 32.0282C102.989 32.0985 102.949 32.1619 102.895 32.2132C102.797 32.3093 102.665 32.3628 102.528 32.3624H100.829C100.758 32.3635 100.687 32.3477 100.623 32.3163C100.559 32.2853 100.497 32.2485 100.439 32.2066C100.271 32.053 100.089 31.8918 99.8932 31.7228C99.6735 31.5407 99.4302 31.3894 99.17 31.2731C98.8173 31.1296 98.4382 31.063 98.0579 31.0778C97.4753 31.0778 97.0314 31.2043 96.7263 31.4573C96.5812 31.5702 96.4643 31.7153 96.3847 31.8814C96.305 32.0474 96.2649 32.2297 96.2675 32.4139C96.2627 32.6588 96.3396 32.8982 96.486 33.094C96.6316 33.2864 96.9262 33.4667 97.3697 33.6349C98.0283 33.8627 98.7032 34.0402 99.3885 34.1658C100.413 34.3501 101.228 34.6225 101.832 34.983C102.437 35.3436 102.865 35.7586 103.118 36.2281C103.373 36.7063 103.503 37.2414 103.496 37.7836C103.502 38.4552 103.289 39.1103 102.889 39.6485C102.482 40.2014 101.885 40.6354 101.098 40.9506C100.311 41.2658 99.3332 41.4234 98.165 41.4234Z" fill="#257CFF"/>
<path d="M111.198 41.1926C110.28 41.1926 109.508 41.031 108.881 40.7078C108.266 40.3993 107.773 39.8919 107.481 39.2674C107.175 38.6312 107.022 37.8362 107.022 36.8826V31.6522H105.208C105.063 31.6522 104.925 31.5944 104.822 31.4915C104.72 31.3887 104.662 31.2492 104.662 31.1037V29.7654C104.662 29.6199 104.72 29.4804 104.822 29.3775C104.925 29.2747 105.063 29.2169 105.208 29.2169H107.021V25.384C107.017 25.2387 107.071 25.0979 107.17 24.9924C107.222 24.9382 107.284 24.8958 107.353 24.868C107.422 24.8402 107.497 24.8276 107.571 24.8311H109.428C109.573 24.8311 109.712 24.8889 109.815 24.9918C109.917 25.0947 109.975 25.2342 109.975 25.3796V29.2048H112.855C113 29.2048 113.139 29.2626 113.241 29.3655C113.344 29.4683 113.401 29.6078 113.401 29.7533V31.0905C113.401 31.236 113.344 31.3755 113.241 31.4784C113.139 31.5812 113 31.639 112.855 31.639H109.982V36.6391C109.982 37.2702 110.091 37.762 110.31 38.1145C110.528 38.467 110.914 38.6436 111.468 38.6443H113.052C113.197 38.6443 113.336 38.7021 113.438 38.805C113.541 38.9079 113.598 39.0474 113.598 39.1928V40.6189C113.598 40.7644 113.541 40.9039 113.438 41.0068C113.336 41.1096 113.197 41.1674 113.052 41.1674L111.198 41.1926Z" fill="#257CFF"/>
<path d="M119.115 41.4231C118.369 41.4339 117.631 41.2721 116.958 40.9503C116.349 40.6655 115.823 40.2294 115.429 39.6832C114.959 39.0051 114.773 38.1691 114.91 37.3547C115.048 36.5402 115.497 35.8123 116.163 35.3271C117.027 34.6894 118.171 34.2634 119.593 34.0491L122.737 33.5873V33.1035C122.737 32.4585 122.577 31.9594 122.255 31.6062C121.934 31.2529 121.386 31.0781 120.611 31.0818C120.061 31.0818 119.614 31.1915 119.27 31.4109C118.935 31.6262 118.669 31.9344 118.505 32.2984C118.453 32.3919 118.376 32.4693 118.283 32.5221C118.19 32.5749 118.084 32.6011 117.977 32.5978H116.164C116.095 32.6032 116.025 32.5937 115.96 32.5698C115.895 32.546 115.836 32.5084 115.786 32.4596C115.698 32.3577 115.653 32.2257 115.659 32.091C115.697 31.7744 115.799 31.4687 115.958 31.1926C116.178 30.7957 116.475 30.447 116.832 30.1669C117.293 29.801 117.813 29.5165 118.37 29.3255C118.997 29.0952 119.754 28.98 120.641 28.98C121.605 28.98 122.42 29.0992 123.086 29.3376C123.681 29.5338 124.226 29.8605 124.681 30.2942C125.076 30.6884 125.375 31.1694 125.554 31.6994C125.74 32.2483 125.833 32.8245 125.83 33.4041V40.6442C125.83 40.7897 125.772 40.9292 125.67 41.032C125.567 41.1349 125.428 41.1927 125.284 41.1927H123.426C123.352 41.1963 123.277 41.1837 123.208 41.1556C123.139 41.1276 123.077 41.0849 123.026 41.0303C122.926 40.9249 122.872 40.784 122.876 40.6387V39.7403C122.655 40.0553 122.383 40.3318 122.073 40.5586C121.7 40.8308 121.285 41.0409 120.845 41.1806C120.285 41.3548 119.701 41.4367 119.115 41.4231ZM119.895 39.2291C120.401 39.236 120.902 39.1173 121.352 38.8835C121.798 38.6423 122.159 38.2678 122.384 37.8118C122.638 37.3284 122.764 36.7177 122.763 35.9798V35.4961L120.469 35.8646C119.567 36.0029 118.894 36.2255 118.45 36.5327C118.007 36.8399 117.785 37.2165 117.785 37.6626C117.777 37.979 117.888 38.287 118.094 38.5259C118.308 38.769 118.581 38.9517 118.886 39.0558C119.21 39.173 119.551 39.2331 119.895 39.2335V39.2291Z" fill="#257CFF"/>
<path d="M134.031 41.1926C133.114 41.1926 132.341 41.031 131.714 40.7078C131.099 40.3993 130.606 39.8919 130.314 39.2674C130.008 38.6312 129.855 37.8362 129.855 36.8826V31.6522H128.04C127.895 31.6522 127.757 31.5944 127.654 31.4915C127.552 31.3887 127.494 31.2492 127.494 31.1037V29.7654C127.494 29.6199 127.552 29.4804 127.654 29.3775C127.757 29.2747 127.895 29.2169 128.04 29.2169H129.853V25.384C129.849 25.2387 129.903 25.0979 130.002 24.9924C130.054 24.9382 130.116 24.8958 130.185 24.868C130.254 24.8402 130.329 24.8276 130.403 24.8311H132.26C132.405 24.8311 132.544 24.8889 132.647 24.9918C132.749 25.0947 132.807 25.2342 132.807 25.3796V29.2048H135.687C135.832 29.2048 135.971 29.2626 136.073 29.3655C136.176 29.4683 136.233 29.6078 136.233 29.7533V31.0905C136.233 31.236 136.176 31.3755 136.073 31.4784C135.971 31.5812 135.832 31.639 135.687 31.639H132.819V36.6391C132.819 37.2702 132.928 37.762 133.146 38.1145C133.365 38.467 133.751 38.6436 134.304 38.6443H135.888C136.033 38.6443 136.172 38.7021 136.274 38.805C136.377 38.9079 136.434 39.0474 136.434 39.1928V40.6189C136.434 40.7644 136.377 40.9039 136.274 41.0068C136.172 41.1096 136.033 41.1674 135.888 41.1674L134.031 41.1926Z" fill="#257CFF"/>
<path d="M143.624 41.423C141.925 41.423 140.577 40.9312 139.582 39.9476C138.586 38.964 138.053 37.5661 137.981 35.7538C137.966 35.6003 137.958 35.405 137.958 35.1659C137.956 34.9776 137.964 34.7894 137.981 34.602C138.042 33.4495 138.306 32.4508 138.773 31.6062C139.218 30.7814 139.892 30.1039 140.712 29.6557C141.538 29.203 142.51 28.9763 143.627 28.9756C144.865 28.9756 145.905 29.2315 146.748 29.7435C147.582 30.2501 148.246 30.9969 148.652 31.887C149.08 32.8011 149.294 33.8572 149.294 35.0551V35.5388C149.296 35.6117 149.282 35.684 149.254 35.7513C149.227 35.8187 149.186 35.8797 149.134 35.9305C149.08 35.9842 149.015 36.0262 148.944 36.0539C148.873 36.0816 148.797 36.0945 148.721 36.0917H141.102V36.276C141.111 36.7867 141.217 37.291 141.413 37.7624C141.59 38.1993 141.884 38.5787 142.261 38.8594C142.652 39.141 143.123 39.2866 143.604 39.2741C144.261 39.2984 144.902 39.0674 145.393 38.629C145.536 38.5038 145.667 38.3649 145.783 38.2144C145.867 38.0804 145.979 37.9663 146.111 37.8798C146.232 37.8354 146.361 37.816 146.489 37.8228H148.468C148.608 37.8179 148.744 37.8674 148.848 37.961C148.895 38.0036 148.932 38.0575 148.954 38.1178C148.976 38.1781 148.982 38.243 148.973 38.3065C148.958 38.5522 148.832 38.8517 148.595 39.2049C148.313 39.6038 147.968 39.954 147.574 40.2416C147.068 40.611 146.506 40.8951 145.91 41.083C145.171 41.3191 144.399 41.4339 143.624 41.423ZM141.099 34.1643H146.174V34.0952C146.186 33.5574 146.085 33.0231 145.876 32.5276C145.69 32.0986 145.387 31.7312 145.002 31.4679C144.705 31.2627 144.367 31.1265 144.011 31.0691C143.655 31.0116 143.291 31.0345 142.945 31.1359C142.599 31.2374 142.28 31.4149 142.01 31.6556C141.741 31.8963 141.529 32.1942 141.389 32.5276C141.187 33.0249 141.089 33.5584 141.101 34.0952L141.099 34.1643Z" fill="#257CFF"/>
<path d="M45.8489 22.9128C45.7041 22.9128 45.5651 22.855 45.4627 22.7521C45.3603 22.6492 45.3027 22.5097 45.3027 22.3643V7.3356C45.3027 7.19013 45.3603 7.05062 45.4627 6.94776C45.5651 6.8449 45.7041 6.78711 45.8489 6.78711H47.9835C48.1284 6.78711 48.2673 6.8449 48.3698 6.94776C48.4722 7.05062 48.5297 7.19013 48.5297 7.3356V20.1703H55.8041C55.8805 20.1664 55.9568 20.1786 56.0282 20.2061C56.0995 20.2337 56.1643 20.2759 56.2184 20.3302C56.2724 20.3845 56.3145 20.4496 56.342 20.5212C56.3694 20.5929 56.3816 20.6695 56.3776 20.7462V22.3588C56.3789 22.4316 56.3654 22.5039 56.3377 22.5713C56.3101 22.6386 56.269 22.6996 56.2171 22.7504C56.1628 22.8041 56.0982 22.8461 56.0272 22.8738C55.9562 22.9016 55.8803 22.9144 55.8041 22.9117L45.8489 22.9128Z" fill="#257CFF"/>
<path d="M58.7905 8.94809C58.7175 8.95293 58.6443 8.94207 58.5759 8.91622C58.5074 8.89037 58.4453 8.85013 58.3935 8.7982C58.3418 8.74627 58.3018 8.68384 58.276 8.61509C58.2503 8.54635 58.2395 8.47288 58.2443 8.39959V6.73657C58.2405 6.59127 58.2944 6.45042 58.3939 6.34495C58.4454 6.29079 58.5078 6.24837 58.5769 6.22054C58.6461 6.19272 58.7204 6.18015 58.7949 6.18369H60.8836C60.9592 6.18136 61.0344 6.19445 61.1048 6.22217C61.1753 6.24988 61.2393 6.29165 61.2932 6.34495C61.3452 6.39574 61.3863 6.4567 61.4139 6.52406C61.4415 6.59141 61.4551 6.66374 61.4538 6.73657V8.39521C61.4574 8.47012 61.4449 8.54494 61.4172 8.61459C61.3895 8.68424 61.3472 8.74709 61.2932 8.79889C61.1802 8.9008 61.032 8.95434 60.8803 8.94809H58.7905ZM58.8823 22.9127C58.7374 22.9127 58.5985 22.8549 58.496 22.752C58.3936 22.6492 58.336 22.5097 58.336 22.3642V11.4832C58.336 11.3377 58.3936 11.1982 58.496 11.0954C58.5985 10.9925 58.7374 10.9347 58.8823 10.9347H60.7874C60.8619 10.9312 60.9362 10.9438 61.0053 10.9716C61.0745 10.9994 61.1369 11.0418 61.1883 11.096C61.2873 11.2018 61.341 11.3424 61.338 11.4876V22.3642C61.341 22.5094 61.2873 22.6499 61.1883 22.7558C61.1369 22.81 61.0745 22.8524 61.0053 22.8802C60.9362 22.908 60.8619 22.9206 60.7874 22.9171L58.8823 22.9127Z" fill="#257CFF"/>
<path d="M72.9042 27.2909C72.7594 27.2909 72.6204 27.2331 72.518 27.1302C72.4156 27.0273 72.358 26.8878 72.358 26.7424V21.5076C71.9815 22.0073 71.4956 22.4134 70.9379 22.6945C70.3553 22.9943 69.6518 23.1439 68.8274 23.1432C68.1138 23.1565 67.4059 23.0151 66.7518 22.7285C66.1638 22.4693 65.6423 22.0792 65.2267 21.5877C64.8111 21.0846 64.4958 20.5058 64.2982 19.8829C64.0766 19.1933 63.953 18.4758 63.9311 17.7515C63.9148 17.4751 63.9082 17.203 63.9082 16.9222C63.9082 16.6414 63.9148 16.3737 63.9311 16.1148C63.9665 15.3724 64.0934 14.6373 64.3091 13.9263C64.4986 13.2999 64.8105 12.7178 65.2267 12.2139C65.6367 11.7263 66.156 11.3433 66.7419 11.0961C67.3999 10.8247 68.1063 10.6914 68.8175 10.7045C69.7046 10.7045 70.4503 10.8657 71.0548 11.1883C71.6206 11.4783 72.1116 11.8962 72.4891 12.4092V11.4877C72.4891 11.3423 72.5467 11.2028 72.6491 11.0999C72.7515 10.997 72.8905 10.9392 73.0353 10.9392H74.8706C75.0155 10.9392 75.1544 10.997 75.2568 11.0999C75.3593 11.2028 75.4168 11.3423 75.4168 11.4877V26.738C75.4168 26.8835 75.3593 27.023 75.2568 27.1258C75.1544 27.2287 75.0155 27.2865 74.8706 27.2865L72.9042 27.2909ZM69.6914 20.6782C70.3032 20.6782 70.8003 20.54 71.1826 20.2636C71.5568 19.9966 71.8538 19.6347 72.0434 19.2149C72.2334 18.7982 72.3389 18.3477 72.3537 17.8897C72.3846 17.5913 72.3999 17.2914 72.3995 16.9913C72.4004 16.6981 72.385 16.4052 72.3537 16.1137C72.3378 15.6352 72.2368 15.1633 72.0554 14.7205C71.8789 14.2771 71.585 13.8905 71.2055 13.6027C70.8232 13.3102 70.3185 13.1639 69.6914 13.1639C69.0491 13.1639 68.5368 13.3058 68.1544 13.5896C67.775 13.8694 67.4905 14.2596 67.3395 14.7074C67.173 15.1981 67.0763 15.7099 67.0522 16.2278C67.0216 16.6884 67.0216 17.1505 67.0522 17.6111C67.0763 18.1289 67.173 18.6408 67.3395 19.1315C67.4905 19.5793 67.775 19.9695 68.1544 20.2493C68.5368 20.5353 69.0491 20.6782 69.6914 20.6782Z" fill="#257CFF"/>
<path d="M82.9092 23.1429C81.9756 23.1429 81.1683 22.9319 80.4873 22.5099C79.7992 22.0783 79.2525 21.4531 78.9153 20.712C78.5512 19.936 78.3691 19.0182 78.3691 17.9585V11.4864C78.3691 11.3409 78.4267 11.2014 78.5291 11.0985C78.6316 10.9956 78.7705 10.9379 78.9153 10.9379H80.9352C81.0098 10.9345 81.0842 10.9471 81.1536 10.9749C81.2229 11.0027 81.2855 11.0451 81.3372 11.0991C81.4359 11.2051 81.4893 11.3457 81.4858 11.4907V17.828C81.4858 19.7294 82.3197 20.6802 83.9874 20.6802C84.7827 20.6802 85.4138 20.4264 85.8806 19.9189C86.3474 19.4113 86.5808 18.7125 86.5808 17.8225V11.4831C86.5808 11.3376 86.6384 11.1981 86.7408 11.0952C86.8432 10.9924 86.9822 10.9346 87.127 10.9346H89.1502C89.295 10.9346 89.434 10.9924 89.5364 11.0952C89.6388 11.1981 89.6964 11.3376 89.6964 11.4831V22.3596C89.6964 22.5051 89.6388 22.6446 89.5364 22.7475C89.434 22.8503 89.295 22.9081 89.1502 22.9081H87.2931C87.2185 22.9118 87.144 22.8992 87.0746 22.8714C87.0052 22.8436 86.9427 22.8011 86.8911 22.7469C86.7924 22.6409 86.739 22.5003 86.7425 22.3553V21.4108C86.3325 21.9451 85.8064 22.3785 85.2044 22.6778C84.5919 22.9879 83.8268 23.1429 82.9092 23.1429Z" fill="#257CFF"/>
<path d="M93.1919 8.94823C93.1189 8.95308 93.0457 8.94222 92.9773 8.91637C92.9088 8.89052 92.8466 8.85028 92.7949 8.79835C92.7432 8.74641 92.7031 8.68399 92.6774 8.61524C92.6516 8.5465 92.6408 8.47303 92.6457 8.39974V6.73672C92.6419 6.59142 92.6957 6.45057 92.7953 6.34509C92.8459 6.29086 92.9075 6.24812 92.9759 6.21974C93.0443 6.19135 93.1179 6.17799 93.1919 6.18055H95.2806C95.3567 6.17777 95.4326 6.19064 95.5036 6.21837C95.5746 6.2461 95.6392 6.2881 95.6935 6.3418C95.7455 6.3926 95.7866 6.45356 95.8142 6.52091C95.8418 6.58827 95.8554 6.6606 95.8541 6.73343V8.39206C95.8577 8.46698 95.8452 8.5418 95.8175 8.61145C95.7898 8.6811 95.7475 8.74395 95.6935 8.79575C95.5805 8.89766 95.4323 8.9512 95.2806 8.94494L93.1919 8.94823ZM93.2836 22.9128C93.1388 22.9128 92.9998 22.855 92.8974 22.7522C92.795 22.6493 92.7374 22.5098 92.7374 22.3643V11.4834C92.7374 11.3379 92.795 11.1984 92.8974 11.0955C92.9998 10.9927 93.1388 10.9349 93.2836 10.9349H95.1888C95.2632 10.9313 95.3375 10.9439 95.4067 10.9717C95.4759 10.9995 95.5383 11.042 95.5897 11.0961C95.6887 11.202 95.7424 11.3426 95.7394 11.4877V22.3643C95.7424 22.5095 95.6887 22.6501 95.5897 22.7559C95.5383 22.8101 95.4759 22.8525 95.4067 22.8803C95.3375 22.9082 95.2632 22.9207 95.1888 22.9172L93.2836 22.9128Z" fill="#257CFF"/>
<path d="M103.217 23.1431C102.497 23.1583 101.782 23.0211 101.118 22.7405C100.533 22.4867 100.017 22.0954 99.6144 21.5996C99.2023 21.0826 98.8907 20.4924 98.6957 19.8598C98.4739 19.1466 98.3504 18.4062 98.3286 17.6593C98.3133 17.3828 98.3057 17.1331 98.3057 16.91C98.3057 16.687 98.3126 16.438 98.3264 16.163C98.3503 15.4362 98.4701 14.7158 98.6825 14.0206C98.8747 13.387 99.1862 12.7964 99.6002 12.2808C100.009 11.7792 100.528 11.3806 101.118 11.1169C101.78 10.8286 102.496 10.6872 103.217 10.7022C104.043 10.7022 104.743 10.8441 105.317 11.1279C105.863 11.3929 106.351 11.766 106.751 12.2248V7.10522C106.748 6.96018 106.801 6.81957 106.9 6.7136C106.951 6.65942 107.014 6.61699 107.083 6.58917C107.153 6.56135 107.227 6.5488 107.302 6.55235H109.251C109.395 6.55235 109.534 6.61013 109.637 6.71299C109.739 6.81586 109.797 6.95537 109.797 7.10084V22.3599C109.797 22.5053 109.739 22.6448 109.637 22.7477C109.534 22.8506 109.395 22.9083 109.251 22.9083H107.438C107.364 22.9119 107.289 22.8993 107.22 22.8715C107.15 22.8437 107.088 22.8013 107.036 22.7471C106.938 22.6411 106.884 22.5005 106.888 22.3555V21.5031C106.488 21.9942 105.991 22.3959 105.427 22.6824C104.844 22.9895 104.108 23.1431 103.217 23.1431ZM104.066 20.6782C104.708 20.6782 105.221 20.5319 105.603 20.2394C105.983 19.9516 106.276 19.565 106.453 19.1216C106.634 18.6784 106.735 18.2062 106.751 17.7273C106.765 17.4509 106.774 17.1547 106.774 16.8398C106.774 16.525 106.765 16.2288 106.751 15.9524C106.736 15.4932 106.626 15.0422 106.43 14.6272C106.233 14.2087 105.932 13.8481 105.556 13.5796C105.174 13.3032 104.677 13.165 104.065 13.165C103.423 13.165 102.913 13.3068 102.535 13.5906C102.161 13.8752 101.878 14.2638 101.721 14.7084C101.547 15.1976 101.446 15.71 101.422 16.2288C101.407 16.691 101.407 17.1521 101.422 17.6121C101.446 18.131 101.547 18.6434 101.721 19.1325C101.877 19.5773 102.161 19.9661 102.535 20.2504C102.913 20.5356 103.424 20.6782 104.066 20.6782Z" fill="#257CFF"/>
<path d="M37.0957 30.11C37.0684 28.8583 36.7494 27.3818 36.1912 25.7846C35.633 24.1874 34.8475 22.4651 33.9091 20.7022C31.3026 15.8163 27.5305 10.6177 24.3363 6.57092C21.9417 3.53667 19.8749 1.14415 18.8622 0L18.1194 0.84687C17.2454 1.85938 16.0066 3.3085 14.5942 5.0516C11.7692 8.53452 8.22318 13.1879 5.37526 17.8424C3.47336 20.9425 1.87953 24.0491 1.01761 26.7631C0.521655 28.3131 0.263845 29.7315 0.294433 30.9316C0.365867 34.089 1.24154 37.1753 2.83795 39.8964C4.43436 42.6175 6.69829 44.8825 9.41387 46.4756C12.1295 48.0687 15.2062 48.9367 18.3506 48.9969C21.4951 49.057 24.6025 48.3073 27.3765 46.8192C30.3765 45.2083 32.8733 42.7941 34.5896 39.8445C36.3058 36.8949 37.1745 33.5253 37.099 30.11H37.0957ZM31.3496 37.7439C30.0161 39.9963 28.1104 41.8525 25.8276 43.1223C23.5449 44.3921 20.9672 45.03 18.3582 44.9706C15.7493 44.9113 13.203 44.1568 10.9799 42.7844C8.75683 41.412 6.93684 39.4711 5.70626 37.1603C4.61297 35.1133 4.01917 32.8349 3.97369 30.5126C3.95075 29.5571 4.15503 28.4217 4.55594 27.1799C5.24854 25.0079 6.52229 22.5265 8.03857 20.0495C10.3173 16.3198 13.1543 12.601 15.4135 9.8147C16.5452 8.42263 17.5306 7.26312 18.2352 6.45135C18.4657 6.18917 18.6721 5.961 18.8316 5.77561C19.6367 6.69159 21.2917 8.60473 23.2078 11.0324C25.7641 14.2706 28.7792 18.4304 30.8646 22.3313C31.577 23.6376 32.188 24.9971 32.6922 26.3978C33.139 27.6769 33.3935 28.8561 33.4165 29.861C33.4809 32.6316 32.7644 35.3642 31.3496 37.7439Z" fill="#257CFF"/>
<path d="M24.8248 35.6094H23.3096V37.1309H24.8248V35.6094Z" fill="#257CFF"/>
<path d="M26.9898 35.6094H25.4746V37.1309H26.9898V35.6094Z" fill="#257CFF"/>
<path d="M24.8248 37.5654H23.3096V39.0869H24.8248V37.5654Z" fill="#257CFF"/>
<path d="M26.9898 37.5654H25.4746V39.0869H26.9898V37.5654Z" fill="#257CFF"/>
<path d="M8.36914 29.9849L13.5658 27.1108V45.1748H8.36914V29.9849Z" fill="#257CFF"/>
<path d="M14.6484 17.462L19.8451 14.2632V45.175H17.2462V26.2598H14.6484" fill="#257CFF"/>
<path d="M14.6484 17.462L19.8451 14.2632V45.175H17.2462V26.2598H14.6484" fill="#257CFF"/>
<path d="M21.1484 18.335L21.5931 18.7584V32.3028L21.1484 32.7778V18.335Z" fill="#257CFF"/>
<path d="M22.1475 19.2896L22.5844 19.7064L22.5855 31.2412L22.1475 31.7096V19.2896Z" fill="#257CFF"/>
<path d="M23.1377 20.2339L23.5801 20.6551V30.1769L23.1388 30.6486L23.1377 20.2339Z" fill="#257CFF"/>
<path d="M24.1318 21.1831L24.571 21.6032L24.5743 29.1132L24.1318 29.5871V21.1831Z" fill="#257CFF"/>
<path d="M14.6865 39.9576L25.0819 29.9619L35.5702 39.9576H33.5099L25.1278 31.9365L16.9336 39.9576H14.6865Z" fill="#257CFF"/>
</g>
<defs>
<clipPath id="clip0_305_963">
<rect width="149" height="49" fill="white" transform="translate(0.291992)"/>
</clipPath>
</defs>
</svg>
