<svg width="150" height="49" viewBox="0 0 150 49" fill="none" xmlns="http://www.w3.org/2000/svg">
<g clip-path="url(#clip0_660_5082)">
<path d="M80.8005 41.1929C80.6556 41.1929 80.5167 41.1351 80.4143 41.0322C80.3118 40.9294 80.2543 40.7899 80.2543 40.6444V25.6377C80.2515 25.5612 80.2643 25.485 80.2919 25.4137C80.3195 25.3424 80.3614 25.2775 80.4149 25.223C80.4654 25.1708 80.5262 25.1296 80.5932 25.1018C80.6603 25.0741 80.7323 25.0605 80.8049 25.0618H90.902C90.9784 25.0578 91.0547 25.07 91.1261 25.0976C91.1974 25.1251 91.2622 25.1674 91.3163 25.2217C91.3704 25.276 91.4125 25.341 91.4399 25.4127C91.4673 25.4844 91.4795 25.561 91.4756 25.6377V27.1592C91.4769 27.232 91.4633 27.3043 91.4357 27.3717C91.408 27.4391 91.367 27.5 91.315 27.5508C91.2607 27.6045 91.1961 27.6465 91.1251 27.6742C91.0541 27.702 90.9782 27.7149 90.902 27.7121H83.3524V31.7907H90.3973C90.5492 31.7848 90.6974 31.8387 90.8103 31.9409C90.864 31.9927 90.9061 32.0554 90.9338 32.1249C90.9615 32.1943 90.9741 32.2688 90.9709 32.3435V33.7696C90.9741 33.8443 90.9615 33.9189 90.9338 33.9883C90.9061 34.0577 90.864 34.1204 90.8103 34.1722C90.6974 34.2744 90.5492 34.3283 90.3973 34.3225H83.3524V38.5415H91.0856C91.1619 38.5375 91.2382 38.5497 91.3096 38.5773C91.381 38.6048 91.4458 38.6471 91.4998 38.7014C91.5539 38.7557 91.596 38.8208 91.6234 38.8924C91.6509 38.9641 91.663 39.0407 91.6591 39.1174V40.6378C91.6606 40.7107 91.6471 40.7831 91.6195 40.8504C91.5918 40.9178 91.5507 40.9788 91.4985 41.0294C91.4444 41.0835 91.3799 41.1258 91.3089 41.1537C91.2378 41.1817 91.1618 41.1946 91.0856 41.1918L80.8005 41.1929Z" fill="white"/>
<path d="M98.7734 41.4234C97.9774 41.4404 97.1837 41.3315 96.4214 41.1009C95.8478 40.9251 95.3084 40.6521 94.8265 40.2935C94.4662 40.0276 94.1552 39.7001 93.9078 39.326C93.7089 39.0035 93.6019 38.7347 93.5866 38.5197C93.5759 38.4452 93.584 38.3692 93.6102 38.2987C93.6363 38.2282 93.6797 38.1654 93.7363 38.116C93.8394 38.0209 93.9742 37.9677 94.1142 37.9668H95.9276C95.9821 37.9658 96.0363 37.9736 96.0882 37.9899C96.1583 38.0227 96.2208 38.0697 96.2718 38.1281C96.4706 38.297 96.6811 38.4736 96.9032 38.6579C97.1424 38.8532 97.4089 39.0121 97.6941 39.1296C98.0598 39.2716 98.4503 39.3384 98.8422 39.326C99.4387 39.326 99.9397 39.2068 100.345 38.9684C100.532 38.8719 100.688 38.7246 100.795 38.5435C100.903 38.3624 100.957 38.1546 100.953 37.9438C100.966 37.6585 100.872 37.3787 100.689 37.1595C100.514 36.9613 100.189 36.781 99.714 36.6186C99.0509 36.4078 98.3765 36.2346 97.6941 36.0998C96.9527 35.9418 96.2353 35.6862 95.5606 35.3396C95.0437 35.0777 94.6076 34.6795 94.2989 34.1877C94.0072 33.6764 93.8644 33.0932 93.8866 32.5044C93.9088 31.9157 94.0952 31.345 94.4245 30.8573C94.7835 30.3117 95.3188 29.8623 96.0303 29.5091C96.7419 29.1559 97.6256 28.9793 98.6816 28.9793C99.4125 28.9652 100.141 29.0705 100.838 29.2908C101.385 29.4631 101.902 29.7224 102.367 30.0587C102.725 30.3173 103.039 30.6321 103.297 30.9911C103.511 31.3063 103.626 31.5791 103.641 31.8095C103.652 31.8829 103.645 31.9579 103.621 32.0282C103.597 32.0985 103.557 32.1619 103.504 32.2132C103.405 32.3093 103.274 32.3628 103.136 32.3624H101.438C101.366 32.3635 101.296 32.3477 101.231 32.3163C101.167 32.2853 101.106 32.2485 101.048 32.2066C100.88 32.053 100.697 31.8918 100.502 31.7228C100.282 31.5407 100.039 31.3894 99.7784 31.2731C99.4257 31.1296 99.0466 31.063 98.6663 31.0778C98.0837 31.0778 97.6398 31.2043 97.3347 31.4573C97.1896 31.5702 97.0727 31.7153 96.9931 31.8814C96.9134 32.0474 96.8733 32.2297 96.8759 32.4139C96.8711 32.6588 96.948 32.8982 97.0944 33.094C97.24 33.2864 97.5346 33.4667 97.9781 33.6349C98.6367 33.8627 99.3116 34.0402 99.9969 34.1658C101.022 34.3501 101.836 34.6225 102.441 34.983C103.045 35.3436 103.474 35.7586 103.726 36.2281C103.981 36.7063 104.111 37.2414 104.104 37.7836C104.11 38.4552 103.897 39.1103 103.497 39.6485C103.091 40.2014 102.494 40.6354 101.707 40.9506C100.919 41.2658 99.9415 41.4234 98.7734 41.4234Z" fill="white"/>
<path d="M111.806 41.1926C110.889 41.1926 110.116 41.031 109.489 40.7078C108.875 40.3993 108.381 39.8919 108.089 39.2674C107.783 38.6312 107.63 37.8362 107.63 36.8826V31.6522H105.817C105.672 31.6522 105.533 31.5944 105.43 31.4915C105.328 31.3887 105.271 31.2492 105.271 31.1037V29.7654C105.271 29.6199 105.328 29.4804 105.43 29.3775C105.533 29.2747 105.672 29.2169 105.817 29.2169H107.629V25.384C107.625 25.2387 107.679 25.0979 107.779 24.9924C107.83 24.9382 107.893 24.8958 107.962 24.868C108.031 24.8402 108.105 24.8276 108.18 24.8311H110.037C110.182 24.8311 110.321 24.8889 110.423 24.9918C110.525 25.0947 110.583 25.2342 110.583 25.3796V29.2048H113.464C113.608 29.2048 113.747 29.2626 113.85 29.3655C113.952 29.4683 114.01 29.6078 114.01 29.7533V31.0905C114.01 31.236 113.952 31.3755 113.85 31.4784C113.747 31.5812 113.608 31.639 113.464 31.639H110.591V36.6391C110.591 37.2702 110.7 37.762 110.918 38.1145C111.137 38.467 111.523 38.6436 112.076 38.6443H113.66C113.805 38.6443 113.944 38.7021 114.047 38.805C114.149 38.9079 114.206 39.0474 114.206 39.1928V40.6189C114.206 40.7644 114.149 40.9039 114.047 41.0068C113.944 41.1096 113.805 41.1674 113.66 41.1674L111.806 41.1926Z" fill="white"/>
<path d="M119.723 41.4231C118.978 41.4339 118.24 41.2721 117.567 40.9503C116.958 40.6655 116.431 40.2294 116.037 39.6832C115.568 39.0051 115.381 38.1691 115.519 37.3547C115.656 36.5402 116.106 35.8123 116.771 35.3271C117.636 34.6894 118.779 34.2634 120.202 34.0491L123.346 33.5873V33.1035C123.346 32.4585 123.185 31.9594 122.864 31.6062C122.543 31.2529 121.995 31.0781 121.22 31.0818C120.669 31.0818 120.222 31.1915 119.878 31.4109C119.543 31.6262 119.277 31.9344 119.113 32.2984C119.061 32.3919 118.984 32.4693 118.891 32.5221C118.798 32.5749 118.693 32.6011 118.586 32.5978H116.772C116.703 32.6032 116.634 32.5937 116.569 32.5698C116.503 32.546 116.444 32.5084 116.394 32.4596C116.307 32.3577 116.261 32.2257 116.268 32.091C116.306 31.7744 116.407 31.4687 116.566 31.1926C116.786 30.7957 117.084 30.447 117.44 30.1669C117.901 29.801 118.422 29.5165 118.978 29.3255C119.605 29.0952 120.362 28.98 121.249 28.98C122.213 28.98 123.028 29.0992 123.694 29.3376C124.29 29.5338 124.834 29.8605 125.289 30.2942C125.684 30.6884 125.984 31.1694 126.163 31.6994C126.348 32.2483 126.441 32.8245 126.438 33.4041V40.6442C126.438 40.7897 126.381 40.9292 126.278 41.032C126.176 41.1349 126.037 41.1927 125.892 41.1927H124.035C123.96 41.1963 123.886 41.1837 123.817 41.1556C123.747 41.1276 123.685 41.0849 123.634 41.0303C123.534 40.9249 123.48 40.784 123.484 40.6387V39.7403C123.263 40.0553 122.992 40.3318 122.681 40.5586C122.308 40.8308 121.893 41.0409 121.453 41.1806C120.893 41.3548 120.309 41.4367 119.723 41.4231ZM120.503 39.2291C121.01 39.236 121.51 39.1173 121.96 38.8835C122.407 38.6423 122.767 38.2678 122.993 37.8118C123.246 37.3284 123.372 36.7177 123.372 35.9798V35.4961L121.078 35.8646C120.175 36.0029 119.502 36.2255 119.059 36.5327C118.615 36.8399 118.394 37.2165 118.394 37.6626C118.386 37.979 118.496 38.287 118.703 38.5259C118.916 38.769 119.189 38.9517 119.495 39.0558C119.818 39.173 120.159 39.2331 120.503 39.2335V39.2291Z" fill="white"/>
<path d="M134.64 41.1926C133.722 41.1926 132.95 41.031 132.323 40.7078C131.708 40.3993 131.215 39.8919 130.922 39.2674C130.616 38.6312 130.463 37.8362 130.463 36.8826V31.6522H128.649C128.504 31.6522 128.365 31.5944 128.263 31.4915C128.16 31.3887 128.103 31.2492 128.103 31.1037V29.7654C128.103 29.6199 128.16 29.4804 128.263 29.3775C128.365 29.2747 128.504 29.2169 128.649 29.2169H130.461V25.384C130.457 25.2387 130.511 25.0979 130.611 24.9924C130.662 24.9382 130.725 24.8958 130.794 24.868C130.863 24.8402 130.937 24.8276 131.012 24.8311H132.869C133.014 24.8311 133.153 24.8889 133.255 24.9918C133.357 25.0947 133.415 25.2342 133.415 25.3796V29.2048H136.296C136.441 29.2048 136.579 29.2626 136.682 29.3655C136.784 29.4683 136.842 29.6078 136.842 29.7533V31.0905C136.842 31.236 136.784 31.3755 136.682 31.4784C136.579 31.5812 136.441 31.639 136.296 31.639H133.427V36.6391C133.427 37.2702 133.536 37.762 133.755 38.1145C133.973 38.467 134.359 38.6436 134.913 38.6443H136.497C136.642 38.6443 136.78 38.7021 136.883 38.805C136.985 38.9079 137.043 39.0474 137.043 39.1928V40.6189C137.043 40.7644 136.985 40.9039 136.883 41.0068C136.78 41.1096 136.642 41.1674 136.497 41.1674L134.64 41.1926Z" fill="white"/>
<path d="M144.232 41.423C142.533 41.423 141.186 40.9312 140.19 39.9476C139.195 38.964 138.661 37.5661 138.59 35.7538C138.574 35.6003 138.567 35.405 138.567 35.1659C138.565 34.9776 138.572 34.7894 138.59 34.602C138.651 33.4495 138.915 32.4508 139.382 31.6062C139.827 30.7814 140.5 30.1039 141.321 29.6557C142.147 29.203 143.118 28.9763 144.235 28.9756C145.473 28.9756 146.514 29.2315 147.356 29.7435C148.191 30.2501 148.854 30.9969 149.26 31.887C149.689 32.8011 149.903 33.8572 149.903 35.0551V35.5388C149.904 35.6117 149.89 35.684 149.863 35.7513C149.835 35.8187 149.794 35.8797 149.742 35.9305C149.688 35.9842 149.623 36.0262 149.552 36.0539C149.481 36.0816 149.405 36.0945 149.329 36.0917H141.711V36.276C141.72 36.7867 141.825 37.291 142.021 37.7624C142.198 38.1993 142.492 38.5787 142.87 38.8594C143.26 39.141 143.732 39.2866 144.212 39.2741C144.869 39.2984 145.51 39.0674 146.002 38.629C146.145 38.5038 146.275 38.3649 146.392 38.2144C146.476 38.0804 146.587 37.9663 146.719 37.8798C146.84 37.8354 146.969 37.816 147.097 37.8228H149.077C149.216 37.8179 149.352 37.8674 149.456 37.961C149.504 38.0036 149.54 38.0575 149.562 38.1178C149.584 38.1781 149.591 38.243 149.582 38.3065C149.566 38.5522 149.44 38.8517 149.204 39.2049C148.921 39.6038 148.576 39.954 148.182 40.2416C147.677 40.611 147.115 40.8951 146.518 41.083C145.779 41.3191 145.007 41.4339 144.232 41.423ZM141.707 34.1643H146.783V34.0952C146.795 33.5574 146.693 33.0231 146.485 32.5276C146.299 32.0986 145.996 31.7312 145.611 31.4679C145.314 31.2627 144.975 31.1265 144.619 31.0691C144.263 31.0116 143.899 31.0345 143.553 31.1359C143.207 31.2374 142.888 31.4149 142.619 31.6556C142.35 31.8963 142.137 32.1942 141.997 32.5276C141.795 33.0249 141.697 33.5584 141.71 34.0952L141.707 34.1643Z" fill="white"/>
<path d="M46.4564 22.9128C46.3115 22.9128 46.1726 22.855 46.0701 22.7521C45.9677 22.6492 45.9102 22.5097 45.9102 22.3643V7.3356C45.9102 7.19013 45.9677 7.05062 46.0701 6.94776C46.1726 6.8449 46.3115 6.78711 46.4564 6.78711H48.5909C48.7358 6.78711 48.8747 6.8449 48.9772 6.94776C49.0796 7.05062 49.1371 7.19013 49.1371 7.3356V20.1703H56.4115C56.4879 20.1664 56.5642 20.1786 56.6356 20.2061C56.7069 20.2337 56.7717 20.2759 56.8258 20.3302C56.8799 20.3845 56.922 20.4496 56.9494 20.5212C56.9768 20.5929 56.989 20.6695 56.9851 20.7462V22.3588C56.9864 22.4316 56.9728 22.5039 56.9452 22.5713C56.9175 22.6386 56.8765 22.6996 56.8245 22.7504C56.7702 22.8041 56.7056 22.8461 56.6346 22.8738C56.5636 22.9016 56.4877 22.9144 56.4115 22.9117L46.4564 22.9128Z" fill="white"/>
<path d="M59.3989 8.94809C59.3259 8.95293 59.2527 8.94207 59.1843 8.91622C59.1158 8.89037 59.0537 8.85013 59.0019 8.7982C58.9502 8.74627 58.9102 8.68384 58.8844 8.61509C58.8587 8.54635 58.8479 8.47288 58.8527 8.39959V6.73657C58.8489 6.59127 58.9028 6.45042 59.0023 6.34495C59.0538 6.29079 59.1162 6.24837 59.1853 6.22054C59.2545 6.19272 59.3288 6.18015 59.4033 6.18369H61.492C61.5676 6.18136 61.6428 6.19445 61.7132 6.22217C61.7837 6.24988 61.8477 6.29165 61.9016 6.34495C61.9536 6.39574 61.9947 6.4567 62.0223 6.52406C62.0499 6.59141 62.0635 6.66374 62.0622 6.73657V8.39521C62.0658 8.47012 62.0533 8.54494 62.0256 8.61459C61.9979 8.68424 61.9556 8.74709 61.9016 8.79889C61.7886 8.9008 61.6404 8.95434 61.4887 8.94809H59.3989ZM59.4907 22.9127C59.3458 22.9127 59.2069 22.8549 59.1044 22.752C59.002 22.6492 58.9444 22.5097 58.9444 22.3642V11.4832C58.9444 11.3377 59.002 11.1982 59.1044 11.0954C59.2069 10.9925 59.3458 10.9347 59.4907 10.9347H61.3958C61.4703 10.9312 61.5446 10.9438 61.6137 10.9716C61.6829 10.9994 61.7453 11.0418 61.7967 11.096C61.8957 11.2018 61.9494 11.3424 61.9464 11.4876V22.3642C61.9494 22.5094 61.8957 22.6499 61.7967 22.7558C61.7453 22.81 61.6829 22.8524 61.6137 22.8802C61.5446 22.908 61.4703 22.9206 61.3958 22.9171L59.4907 22.9127Z" fill="white"/>
<path d="M73.5126 27.2909C73.3678 27.2909 73.2288 27.2331 73.1264 27.1302C73.024 27.0273 72.9664 26.8878 72.9664 26.7424V21.5076C72.5899 22.0073 72.104 22.4134 71.5463 22.6945C70.9637 22.9943 70.2602 23.1439 69.4357 23.1432C68.7222 23.1565 68.0143 23.0151 67.3602 22.7285C66.7722 22.4693 66.2507 22.0792 65.8351 21.5877C65.4195 21.0846 65.1042 20.5058 64.9066 19.8829C64.685 19.1933 64.5614 18.4758 64.5395 17.7515C64.5232 17.4751 64.5166 17.203 64.5166 16.9222C64.5166 16.6414 64.5232 16.3737 64.5395 16.1148C64.5749 15.3724 64.7018 14.6373 64.9175 13.9263C65.107 13.2999 65.4189 12.7178 65.8351 12.2139C66.2451 11.7263 66.7644 11.3433 67.3503 11.0961C68.0083 10.8247 68.7147 10.6914 69.4259 10.7045C70.313 10.7045 71.0587 10.8657 71.6632 11.1883C72.229 11.4783 72.72 11.8962 73.0975 12.4092V11.4877C73.0975 11.3423 73.1551 11.2028 73.2575 11.0999C73.3599 10.997 73.4989 10.9392 73.6437 10.9392H75.479C75.6239 10.9392 75.7628 10.997 75.8652 11.0999C75.9676 11.2028 76.0252 11.3423 76.0252 11.4877V26.738C76.0252 26.8835 75.9676 27.023 75.8652 27.1258C75.7628 27.2287 75.6239 27.2865 75.479 27.2865L73.5126 27.2909ZM70.2998 20.6782C70.9116 20.6782 71.4086 20.54 71.791 20.2636C72.1652 19.9966 72.4622 19.6347 72.6518 19.2149C72.8418 18.7982 72.9473 18.3477 72.9621 17.8897C72.993 17.5913 73.0083 17.2914 73.0079 16.9913C73.0088 16.6981 72.9934 16.4052 72.9621 16.1137C72.9462 15.6352 72.8452 15.1633 72.6638 14.7205C72.4873 14.2771 72.1934 13.8905 71.8139 13.6027C71.4316 13.3102 70.9269 13.1639 70.2998 13.1639C69.6575 13.1639 69.1452 13.3058 68.7628 13.5896C68.3834 13.8694 68.0989 14.2596 67.9479 14.7074C67.7814 15.1981 67.6847 15.7099 67.6606 16.2278C67.63 16.6884 67.63 17.1505 67.6606 17.6111C67.6847 18.1289 67.7814 18.6408 67.9479 19.1315C68.0989 19.5793 68.3834 19.9695 68.7628 20.2493C69.1452 20.5353 69.6575 20.6782 70.2998 20.6782Z" fill="white"/>
<path d="M83.5176 23.1429C82.584 23.1429 81.7767 22.9319 81.0957 22.5099C80.4076 22.0783 79.8609 21.4531 79.5237 20.712C79.1596 19.936 78.9775 19.0182 78.9775 17.9585V11.4864C78.9775 11.3409 79.0351 11.2014 79.1375 11.0985C79.24 10.9956 79.3789 10.9379 79.5237 10.9379H81.5436C81.6182 10.9345 81.6926 10.9471 81.762 10.9749C81.8313 11.0027 81.8939 11.0451 81.9456 11.0991C82.0443 11.2051 82.0977 11.3457 82.0942 11.4907V17.828C82.0942 19.7294 82.9281 20.6802 84.5958 20.6802C85.3911 20.6802 86.0222 20.4264 86.489 19.9189C86.9558 19.4113 87.1892 18.7125 87.1892 17.8225V11.4831C87.1892 11.3376 87.2468 11.1981 87.3492 11.0952C87.4516 10.9924 87.5906 10.9346 87.7354 10.9346H89.7586C89.9034 10.9346 90.0424 10.9924 90.1448 11.0952C90.2472 11.1981 90.3048 11.3376 90.3048 11.4831V22.3596C90.3048 22.5051 90.2472 22.6446 90.1448 22.7475C90.0424 22.8503 89.9034 22.9081 89.7586 22.9081H87.9015C87.8269 22.9118 87.7524 22.8992 87.683 22.8714C87.6136 22.8436 87.5511 22.8011 87.4995 22.7469C87.4008 22.6409 87.3474 22.5003 87.3509 22.3553V21.4108C86.9409 21.9451 86.4148 22.3785 85.8128 22.6778C85.2003 22.9879 84.4352 23.1429 83.5176 23.1429Z" fill="white"/>
<path d="M93.8003 8.94823C93.7273 8.95308 93.6541 8.94222 93.5857 8.91637C93.5172 8.89052 93.455 8.85028 93.4033 8.79835C93.3516 8.74641 93.3115 8.68399 93.2858 8.61524C93.26 8.5465 93.2492 8.47303 93.254 8.39974V6.73672C93.2503 6.59142 93.3041 6.45057 93.4037 6.34509C93.4543 6.29086 93.5159 6.24812 93.5843 6.21974C93.6526 6.19135 93.7263 6.17799 93.8003 6.18055H95.889C95.9651 6.17777 96.041 6.19064 96.112 6.21837C96.183 6.2461 96.2476 6.2881 96.3019 6.3418C96.3539 6.3926 96.395 6.45356 96.4226 6.52091C96.4502 6.58827 96.4638 6.6606 96.4625 6.73343V8.39206C96.4661 8.46698 96.4536 8.5418 96.4259 8.61145C96.3982 8.6811 96.3559 8.74395 96.3019 8.79575C96.1889 8.89766 96.0407 8.9512 95.889 8.94494L93.8003 8.94823ZM93.892 22.9128C93.7472 22.9128 93.6082 22.855 93.5058 22.7522C93.4034 22.6493 93.3458 22.5098 93.3458 22.3643V11.4834C93.3458 11.3379 93.4034 11.1984 93.5058 11.0955C93.6082 10.9927 93.7472 10.9349 93.892 10.9349H95.7972C95.8716 10.9313 95.9459 10.9439 96.0151 10.9717C96.0843 10.9995 96.1467 11.042 96.1981 11.0961C96.2971 11.202 96.3508 11.3426 96.3478 11.4877V22.3643C96.3508 22.5095 96.2971 22.6501 96.1981 22.7559C96.1467 22.8101 96.0843 22.8525 96.0151 22.8803C95.9459 22.9082 95.8716 22.9207 95.7972 22.9172L93.892 22.9128Z" fill="white"/>
<path d="M103.826 23.1431C103.105 23.1583 102.39 23.0211 101.726 22.7405C101.141 22.4867 100.626 22.0954 100.223 21.5996C99.8107 21.0826 99.4991 20.4924 99.304 19.8598C99.0823 19.1466 98.9588 18.4062 98.937 17.6593C98.9217 17.3828 98.9141 17.1331 98.9141 16.91C98.9141 16.687 98.921 16.438 98.9348 16.163C98.9587 15.4362 99.0785 14.7158 99.2909 14.0206C99.4831 13.387 99.7946 12.7964 100.209 12.2808C100.617 11.7792 101.137 11.3806 101.726 11.1169C102.388 10.8286 103.104 10.6872 103.826 10.7022C104.651 10.7022 105.351 10.8441 105.925 11.1279C106.472 11.3929 106.96 11.766 107.36 12.2248V7.10522C107.356 6.96018 107.409 6.81957 107.508 6.7136C107.56 6.65942 107.622 6.61699 107.692 6.58917C107.761 6.56135 107.836 6.5488 107.91 6.55235H109.859C110.004 6.55235 110.143 6.61013 110.245 6.71299C110.348 6.81586 110.405 6.95537 110.405 7.10084V22.3599C110.405 22.5053 110.348 22.6448 110.245 22.7477C110.143 22.8506 110.004 22.9083 109.859 22.9083H108.047C107.972 22.9119 107.898 22.8993 107.828 22.8715C107.759 22.8437 107.696 22.8013 107.645 22.7471C107.546 22.6411 107.493 22.5005 107.496 22.3555V21.5031C107.096 21.9942 106.599 22.3959 106.036 22.6824C105.453 22.9895 104.716 23.1431 103.826 23.1431ZM104.674 20.6782C105.317 20.6782 105.829 20.5319 106.211 20.2394C106.591 19.9516 106.885 19.565 107.061 19.1216C107.243 18.6784 107.344 18.2062 107.36 17.7273C107.374 17.4509 107.382 17.1547 107.382 16.8398C107.382 16.525 107.374 16.2288 107.36 15.9524C107.344 15.4932 107.235 15.0422 107.038 14.6272C106.841 14.2087 106.54 13.8481 106.164 13.5796C105.782 13.3032 105.285 13.165 104.673 13.165C104.031 13.165 103.521 13.3068 103.144 13.5906C102.769 13.8752 102.486 14.2638 102.329 14.7084C102.155 15.1976 102.055 15.71 102.031 16.2288C102.015 16.691 102.015 17.1521 102.031 17.6121C102.055 18.131 102.155 18.6434 102.329 19.1325C102.486 19.5773 102.769 19.9661 103.144 20.2504C103.522 20.5356 104.032 20.6782 104.674 20.6782Z" fill="white"/>
<path d="M37.7041 30.11C37.6768 28.8583 37.3578 27.3818 36.7996 25.7846C36.2414 24.1874 35.4559 22.4651 34.5175 20.7022C31.911 15.8163 28.1389 10.6177 24.9447 6.57092C22.5501 3.53667 20.4833 1.14415 19.4706 0L18.7278 0.84687C17.8538 1.85938 16.615 3.3085 15.2025 5.0516C12.3776 8.53452 8.83158 13.1879 5.98365 17.8424C4.08176 20.9425 2.48793 24.0491 1.62601 26.7631C1.13005 28.3131 0.872244 29.7315 0.902831 30.9316C0.974265 34.089 1.84994 37.1753 3.44635 39.8964C5.04276 42.6175 7.30669 44.8825 10.0223 46.4756C12.7379 48.0687 15.8146 48.9367 18.959 48.9969C22.1035 49.057 25.2109 48.3073 27.9849 46.8192C30.9849 45.2083 33.4817 42.7941 35.198 39.8445C36.9142 36.8949 37.7829 33.5253 37.7074 30.11H37.7041ZM31.958 37.7439C30.6244 39.9963 28.7188 41.8525 26.436 43.1223C24.1533 44.3921 21.5756 45.03 18.9666 44.9706C16.3577 44.9113 13.8114 44.1568 11.5883 42.7844C9.36523 41.412 7.54524 39.4711 6.31466 37.1603C5.22136 35.1133 4.62756 32.8349 4.58209 30.5126C4.55914 29.5571 4.76343 28.4217 5.16434 27.1799C5.85693 25.0079 7.13069 22.5265 8.64696 20.0495C10.9257 16.3198 13.7627 12.601 16.0219 9.8147C17.1536 8.42263 18.139 7.26312 18.8436 6.45135C19.0741 6.18917 19.2805 5.961 19.44 5.77561C20.2451 6.69159 21.9001 8.60473 23.8162 11.0324C26.3725 14.2706 29.3876 18.4304 31.473 22.3313C32.1854 23.6376 32.7964 24.9971 33.3006 26.3978C33.7474 27.6769 34.0019 28.8561 34.0249 29.861C34.0893 32.6316 33.3728 35.3642 31.958 37.7439Z" fill="white"/>
<path d="M25.4331 35.6094H23.918V37.1309H25.4331V35.6094Z" fill="white"/>
<path d="M27.5972 35.6094H26.082V37.1309H27.5972V35.6094Z" fill="white"/>
<path d="M25.4331 37.5654H23.918V39.0869H25.4331V37.5654Z" fill="white"/>
<path d="M27.5972 37.5654H26.082V39.0869H27.5972V37.5654Z" fill="white"/>
<path d="M8.97852 29.9849L14.1751 27.1108V45.1748H8.97852V29.9849Z" fill="white"/>
<path d="M15.2559 17.462L20.4525 14.2632V45.175H17.8536V26.2598H15.2559" fill="white"/>
<path d="M15.2559 17.462L20.4525 14.2632V45.175H17.8536V26.2598H15.2559" fill="white"/>
<path d="M21.7559 18.335L22.2005 18.7584V32.3028L21.7559 32.7778V18.335Z" fill="white"/>
<path d="M22.7559 19.2896L23.1928 19.7064L23.1939 31.2412L22.7559 31.7096V19.2896Z" fill="white"/>
<path d="M23.7461 20.2339L24.1885 20.6551V30.1769L23.7472 30.6486L23.7461 20.2339Z" fill="white"/>
<path d="M24.7402 21.1831L25.1794 21.6032L25.1827 29.1132L24.7402 29.5871V21.1831Z" fill="white"/>
<path d="M15.2949 39.9576L25.6903 29.9619L36.1786 39.9576H34.1183L25.7362 31.9365L17.542 39.9576H15.2949Z" fill="white"/>
</g>
<defs>
<clipPath id="clip0_660_5082">
<rect width="149" height="49" fill="white" transform="translate(0.900391)"/>
</clipPath>
</defs>
</svg>
