<svg width="20" height="19" viewBox="0 0 20 19" fill="none" xmlns="http://www.w3.org/2000/svg">
<path d="M10.5 11.9999V17.9999C10.5 18.5499 10.95 18.9999 11.5 18.9999H17.5C18.05 18.9999 18.5 18.5499 18.5 17.9999V11.9999C18.5 11.4499 18.05 10.9999 17.5 10.9999H11.5C10.95 10.9999 10.5 11.4499 10.5 11.9999ZM1.5 18.9999H7.5C8.05 18.9999 8.5 18.5499 8.5 17.9999V11.9999C8.5 11.4499 8.05 10.9999 7.5 10.9999H1.5C0.95 10.9999 0.5 11.4499 0.5 11.9999V17.9999C0.5 18.5499 0.95 18.9999 1.5 18.9999ZM0.5 1.99992V7.99992C0.5 8.54992 0.95 8.99992 1.5 8.99992H7.5C8.05 8.99992 8.5 8.54992 8.5 7.99992V1.99992C8.5 1.44992 8.05 0.999922 7.5 0.999922H1.5C0.95 0.999922 0.5 1.44992 0.5 1.99992ZM13.45 0.399922L9.2 4.63992C8.81 5.02992 8.81 5.65992 9.2 6.04992L13.45 10.2999C13.84 10.6899 14.47 10.6899 14.86 10.2999L19.11 6.04992C19.5 5.65992 19.5 5.02992 19.11 4.63992L14.87 0.399922C14.48 0.00992188 13.84 0.00992188 13.45 0.399922Z" fill="#7B7B7B"/>
</svg>
