<svg width="19" height="14" viewBox="0 0 19 14" fill="none" xmlns="http://www.w3.org/2000/svg">
<path d="M3.64027 6.85984L0.860273 9.64984C0.670273 9.84984 0.670273 10.1598 0.860273 10.3598L3.64027 13.1498C3.95027 13.4698 4.49027 13.2398 4.49027 12.7998V10.9998H10.5003C11.0503 10.9998 11.5003 10.5498 11.5003 9.99984C11.5003 9.44984 11.0503 8.99984 10.5003 8.99984H4.49027V7.20984C4.49027 6.75984 3.95027 6.53984 3.64027 6.85984ZM18.1503 3.64984L15.3703 0.859844C15.0603 0.539844 14.5203 0.769844 14.5203 1.20984V2.99984H8.50027C7.95027 2.99984 7.50027 3.44984 7.50027 3.99984C7.50027 4.54984 7.95027 4.99984 8.50027 4.99984H14.5103V6.78984C14.5103 7.23984 15.0503 7.45984 15.3603 7.13984L18.1403 4.34984C18.3403 4.15984 18.3403 3.83984 18.1503 3.64984Z" fill="#7B7B7B"/>
</svg>
