<svg width="65" height="65" viewBox="0 0 65 65" fill="none" xmlns="http://www.w3.org/2000/svg">
<g clip-path="url(#clip0_660_4570)">
<path d="M64.1934 32.6104C64.1934 14.9372 49.8665 0.610352 32.1934 0.610352C14.5202 0.610352 0.193359 14.9372 0.193359 32.6104C0.193359 50.2835 14.5202 64.6104 32.1934 64.6104C49.8665 64.6104 64.1934 50.2835 64.1934 32.6104Z" fill="#7289DA"/>
<path d="M48.2416 21.6501C45.3059 19.3014 41.783 18.1271 38.0643 17.9314L37.4771 18.5186C40.8043 19.3014 43.7402 20.8671 46.4802 23.0201C43.153 21.2586 39.4343 20.0843 35.5199 19.6929C34.3456 19.4971 33.367 19.4971 32.1927 19.4971C31.0184 19.4971 30.0398 19.4971 28.8655 19.6929C24.9511 20.0843 21.2324 21.2586 17.9052 23.0201C20.6452 20.8671 23.5811 19.3014 26.9083 18.5186L26.3211 17.9314C22.6024 18.1271 19.0795 19.3014 16.1438 21.6501C12.8166 27.9131 11.0551 34.959 10.8594 42.2005C13.7951 45.3321 17.9052 47.2893 22.2111 47.2893C22.2111 47.2893 23.5811 45.7235 24.5596 44.3534C22.0154 43.7663 19.6667 42.3962 18.101 40.2434C19.471 41.0262 20.841 41.8091 22.2111 42.3962C23.9726 43.1791 25.734 43.5706 27.4955 43.9621C29.0612 44.1577 30.627 44.3534 32.1927 44.3534C33.7584 44.3534 35.3242 44.1577 36.8899 43.9621C38.6514 43.5706 40.4128 43.1791 42.1743 42.3962C43.5444 41.8091 44.9144 41.0262 46.2844 40.2434C44.7187 42.3962 42.37 43.7663 39.8258 44.3534C40.8043 45.7235 42.1743 47.2893 42.1743 47.2893C46.4802 47.2893 50.5903 45.3321 53.526 42.2005C53.3303 34.959 51.5688 27.9131 48.2416 21.6501ZM25.734 38.6775C23.7768 38.6775 22.0154 36.9161 22.0154 34.7633C22.0154 32.6103 23.7768 30.8489 25.734 30.8489C27.6912 30.8489 29.4527 32.6103 29.4527 34.7633C29.4527 36.9161 27.6912 38.6775 25.734 38.6775ZM38.6514 38.6775C36.6942 38.6775 34.9327 36.9161 34.9327 34.7633C34.9327 32.6103 36.6942 30.8489 38.6514 30.8489C40.6086 30.8489 42.37 32.6103 42.37 34.7633C42.37 36.9161 40.6086 38.6775 38.6514 38.6775Z" fill="white"/>
</g>
<defs>
<clipPath id="clip0_660_4570">
<rect width="64" height="64" fill="white" transform="translate(0.193359 0.610352)"/>
</clipPath>
</defs>
</svg>
