<svg width="65" height="65" viewBox="0 0 65 65" fill="none" xmlns="http://www.w3.org/2000/svg">
<g clip-path="url(#clip0_660_4583)">
<path d="M64.1934 32.6104C64.1934 50.2904 49.8734 64.6104 32.1934 64.6104C14.5134 64.6104 0.193359 50.2904 0.193359 32.6104C0.193359 14.9304 14.5134 0.610352 32.1934 0.610352C49.8734 0.610352 64.1934 14.9304 64.1934 32.6104Z" fill="url(#paint0_linear_660_4583)"/>
<path d="M26.3272 47.277C25.2872 47.277 25.4739 46.877 25.1005 45.8904L22.0605 35.8637L40.9405 24.077L43.1539 24.6637L41.3139 29.677L26.3272 47.277Z" fill="#C8DAEA"/>
<path d="M26.3262 47.277C27.1262 47.277 27.4728 46.9037 27.9262 46.477C28.6195 45.8104 37.5262 37.1437 37.5262 37.1437L32.0595 35.8104L26.9928 39.0104L26.3262 47.0104V47.277Z" fill="#A9C9DD"/>
<path d="M26.8599 39.117L39.7665 48.637C41.2332 49.437 42.2999 49.037 42.6732 47.277L47.9265 22.5304C48.4599 20.3704 47.0999 19.4104 45.6865 20.0504L14.8599 31.9437C12.7532 32.797 12.7799 33.9704 14.4865 34.477L22.4065 36.957L40.7265 25.4104C41.5799 24.877 42.3799 25.1704 41.7399 25.757L26.8599 39.117Z" fill="url(#paint1_linear_660_4583)"/>
</g>
<defs>
<linearGradient id="paint0_linear_660_4583" x1="41.572" y1="10.725" x2="25.572" y2="48.0578" gradientUnits="userSpaceOnUse">
<stop stop-color="#37AEE2"/>
<stop offset="1" stop-color="#1E96C8"/>
</linearGradient>
<linearGradient id="paint1_linear_660_4583" x1="34.5908" y1="33.6117" x2="41.2575" y2="44.2784" gradientUnits="userSpaceOnUse">
<stop stop-color="#EFF7FC"/>
<stop offset="1" stop-color="white"/>
</linearGradient>
<clipPath id="clip0_660_4583">
<rect width="64" height="64" fill="white" transform="translate(0.193359 0.610352)"/>
</clipPath>
</defs>
</svg>
