<svg width="65" height="65" viewBox="0 0 65 65" fill="none" xmlns="http://www.w3.org/2000/svg">
<g clip-path="url(#clip0_660_4603)">
<path d="M32.1934 64.6104C49.8665 64.6104 64.1934 50.2835 64.1934 32.6104C64.1934 14.9373 49.8665 0.610413 32.1934 0.610413C14.5202 0.610413 0.193359 14.9373 0.193359 32.6104C0.193359 50.2835 14.5202 64.6104 32.1934 64.6104Z" fill="#2DAAE1"/>
<path d="M50.2407 21.414C48.9131 22.0031 47.4871 22.4014 45.9879 22.5804C47.518 21.6641 48.6902 20.2121 49.2437 18.4841C47.7902 19.3474 46.1994 19.9551 44.5406 20.281C43.1906 18.842 41.2656 17.9436 39.1358 17.9436C35.0478 17.9436 31.7324 21.2576 31.7324 25.348C31.7324 25.9276 31.7977 26.493 31.9232 27.0358C25.7693 26.7266 20.3135 23.7788 16.6616 19.2996C16.0239 20.3935 15.6589 21.6654 15.6589 23.0225C15.6589 25.591 16.9663 27.8573 18.9528 29.1848C17.7768 29.1484 16.6267 28.8309 15.5984 28.2591V28.3526C15.5984 31.9405 18.1504 34.9321 21.5379 35.6125C20.9156 35.783 20.2625 35.8721 19.5869 35.8721C19.1093 35.8721 18.6458 35.8269 18.1931 35.7417C19.1353 38.6825 21.8699 40.823 25.1091 40.8835C22.5749 42.87 19.3818 44.0542 15.9137 44.0542C15.3164 44.0542 14.726 44.0185 14.1465 43.9487C17.4238 46.0502 21.3151 47.2769 25.4967 47.2769C39.1156 47.2769 46.5639 35.9943 46.5639 26.2098C46.5639 25.8886 46.5568 25.5697 46.5413 25.252C47.9925 24.2024 49.2452 22.9028 50.2407 21.414Z" fill="white"/>
</g>
<defs>
<clipPath id="clip0_660_4603">
<rect width="64" height="64" fill="white" transform="translate(0.193359 0.610352)"/>
</clipPath>
</defs>
</svg>
