<svg width="25" height="25" viewBox="0 0 24 25" fill="none" xmlns="http://www.w3.org/2000/svg">
<g clip-path="url(#clip0_619_4419)">
<path d="M20.883 6.83266C18.0891 4.74226 15.4126 4.80082 15.4126 4.80082L15.139 5.1133C18.4604 6.10978 20.0038 7.57498 20.0038 7.57498C15.2521 4.95874 9.19928 4.97746 4.25672 7.57498C4.25672 7.57498 5.85873 6.03154 9.37545 5.03506L9.18008 4.80058C9.18008 4.80058 6.52304 4.74202 3.70976 6.83242C3.70976 6.83242 0.896484 11.8926 0.896484 18.1249C0.896484 18.1249 2.5376 20.9382 6.85544 21.075C6.85544 21.075 7.57832 20.2153 8.1644 19.473C5.68304 18.7307 4.74536 17.1872 4.74536 17.1872C6.30416 18.1626 7.88048 18.7731 9.84464 19.1605C13.0405 19.8183 17.0156 19.142 19.9844 17.1872C19.9844 17.1872 19.0076 18.7698 16.4482 19.4927C17.0343 20.2155 17.7378 21.0555 17.7378 21.0555C22.0551 20.919 23.6962 18.1057 23.6962 18.1251C23.6962 11.8928 20.883 6.83266 20.883 6.83266ZM8.65257 16.3083C7.5584 16.3083 6.65984 15.351 6.65984 14.1591C6.73976 11.3051 10.5855 11.3139 10.6455 14.1591C10.6453 15.351 9.76616 16.3083 8.65257 16.3083ZM15.7837 16.3083C14.6895 16.3083 13.791 15.351 13.791 14.1591C13.8788 11.3106 17.6766 11.3094 17.7766 14.1591C17.7764 15.351 16.8973 16.3083 15.7837 16.3083Z" fill="#6B7688"/>
</g>
<defs>
<clipPath id="clip0_619_4419">
<rect width="24" height="24" fill="white" transform="translate(0.296875 0.937988)"/>
</clipPath>
</defs>
</svg>
