<svg width="25" height="25" viewBox="0 0 20 21" fill="none" xmlns="http://www.w3.org/2000/svg">
<g clip-path="url(#clip0_619_4437)">
<path d="M6.96408 10.938C6.96408 9.09712 8.456 7.60439 10.2969 7.60439C12.1377 7.60439 13.6305 9.09712 13.6305 10.938C13.6305 12.7789 12.1377 14.2716 10.2969 14.2716C8.456 14.2716 6.96408 12.7789 6.96408 10.938ZM5.16198 10.938C5.16198 13.774 7.46085 16.0729 10.2969 16.0729C13.1329 16.0729 15.4318 13.774 15.4318 10.938C15.4318 8.10196 13.1329 5.80309 10.2969 5.80309C7.46085 5.80309 5.16198 8.10196 5.16198 10.938ZM14.435 5.59954C14.435 6.2619 14.9722 6.79986 15.6353 6.79986C16.2977 6.79986 16.8356 6.2619 16.8356 5.59954C16.8356 4.93718 16.2985 4.40002 15.6353 4.40002C14.9722 4.40002 14.435 4.93718 14.435 5.59954ZM6.25649 19.0777C5.28153 19.0333 4.75164 18.8709 4.39946 18.7336C3.93258 18.5519 3.59978 18.3354 3.24922 17.9856C2.89946 17.6359 2.68217 17.3031 2.50124 16.8362C2.36392 16.484 2.20156 15.9541 2.15713 14.9792C2.10867 13.9251 2.09898 13.6084 2.09898 10.938C2.09898 8.26755 2.10948 7.95172 2.15713 6.89679C2.20156 5.92183 2.36473 5.39275 2.50124 5.03976C2.68298 4.57288 2.89946 4.24009 3.24922 3.88952C3.59897 3.53977 3.93177 3.32248 4.39946 3.14154C4.75164 3.00422 5.28153 2.84187 6.25649 2.79744C7.31061 2.74897 7.62725 2.73928 10.2969 2.73928C12.9673 2.73928 13.2831 2.74978 14.3381 2.79744C15.313 2.84187 15.8421 3.00503 16.1951 3.14154C16.662 3.32248 16.9948 3.53977 17.3453 3.88952C17.6951 4.23928 17.9116 4.57288 18.0933 5.03976C18.2306 5.39195 18.393 5.92183 18.4374 6.89679C18.4859 7.95172 18.4956 8.26755 18.4956 10.938C18.4956 13.6076 18.4859 13.9243 18.4374 14.9792C18.393 15.9541 18.2298 16.484 18.0933 16.8362C17.9116 17.3031 17.6951 17.6359 17.3453 17.9856C16.9956 18.3354 16.662 18.5519 16.1951 18.7336C15.8429 18.8709 15.313 19.0333 14.3381 19.0777C13.284 19.1262 12.9673 19.1359 10.2969 19.1359C7.62725 19.1359 7.31061 19.1262 6.25649 19.0777ZM6.1741 0.99857C5.10948 1.04704 4.3825 1.21586 3.74679 1.46303C3.08928 1.71828 2.53193 2.06077 1.97539 2.6165C1.41965 3.17224 1.07717 3.72959 0.821915 4.38791C0.574743 5.02361 0.405922 5.75059 0.357457 6.81521C0.308184 7.88144 0.296875 8.22232 0.296875 10.938C0.296875 13.6537 0.308184 13.9945 0.357457 15.0608C0.405922 16.1254 0.574743 16.8524 0.821915 17.4881C1.07717 18.1456 1.41885 18.7037 1.97539 19.2595C2.53112 19.8152 3.08847 20.1569 3.74679 20.4129C4.3833 20.6601 5.10948 20.8289 6.1741 20.8774C7.24114 20.9259 7.5812 20.938 10.2969 20.938C13.0134 20.938 13.3534 20.9267 14.4197 20.8774C15.4843 20.8289 16.2113 20.6601 16.847 20.4129C17.5045 20.1569 18.0618 19.8152 18.6184 19.2595C19.1741 18.7037 19.5158 18.1456 19.7718 17.4881C20.019 16.8524 20.1886 16.1254 20.2363 15.0608C20.2848 13.9937 20.2961 13.6537 20.2961 10.938C20.2961 8.22232 20.2848 7.88144 20.2363 6.81521C20.1878 5.75059 20.019 5.02361 19.7718 4.38791C19.5158 3.7304 19.1741 3.17304 18.6184 2.6165C18.0626 2.06077 17.5045 1.71828 16.8478 1.46303C16.2113 1.21586 15.4843 1.04623 14.4205 0.99857C13.3542 0.950105 13.0134 0.937988 10.2977 0.937988C7.5812 0.937988 7.24114 0.949297 6.1741 0.99857Z" fill="#6B7688"/>
</g>
<defs>
<clipPath id="clip0_619_4437">
<rect width="20" height="20" fill="white" transform="translate(0.296875 0.937988)"/>
</clipPath>
</defs>
</svg>
