<svg width="25" height="25" viewBox="0 -1 22 25" fill="none" xmlns="http://www.w3.org/2000/svg">
<g clip-path="url(#clip0_619_4429)">
<path d="M20.2387 1.62549H2.35508C1.59883 1.62549 0.984375 2.23994 0.984375 2.99619V20.8755C0.984375 21.6317 1.59883 22.2462 2.35508 22.2462H20.2344C20.9906 22.2462 21.6051 21.6317 21.6051 20.8755V2.99619C21.6094 2.23994 20.9949 1.62549 20.2387 1.62549ZM7.67891 19.2685H4.45625V10.1548H7.67461V19.2685H7.67891ZM6.06758 7.70986C5.17812 7.70986 4.45625 6.98799 4.45625 6.09854C4.45625 5.20908 5.17812 4.48721 6.06758 4.48721C6.95703 4.48721 7.67891 5.20908 7.67891 6.09854C7.67891 6.98799 6.95703 7.70986 6.06758 7.70986ZM18.8293 19.3845H15.6109V15.6032C15.6109 14.9501 15.0824 14.4259 14.4336 14.4259C13.7848 14.4259 13.2563 14.9544 13.2563 15.6032V19.2685H10.0379V10.1548H13.2563V11.9638C13.5957 11.8048 13.9438 11.6716 14.3047 11.5771C14.9707 11.3966 15.6625 11.3536 16.3414 11.4567C16.7969 11.5255 17.2781 11.6415 17.6777 11.8735C18.391 12.2903 18.8293 13.1239 18.8293 13.9446C18.8293 13.9403 18.8293 19.3845 18.8293 19.3845Z" fill="#6B7688"/>
</g>
<defs>
<clipPath id="clip0_619_4429">
<rect width="22" height="22" fill="white" transform="translate(0.296875 0.937988)"/>
</clipPath>
</defs>
</svg>
