<svg width="25" height="25" viewBox="0 0 24 25" fill="none" xmlns="http://www.w3.org/2000/svg">
<path d="M21.5059 7.35462H22.2969V5.02124H14.8167L12.3308 14.1879H12.2628L9.79957 5.02124H2.29688V7.35456H3.06524C3.24287 7.38347 3.40768 7.46521 3.53818 7.58914C3.66868 7.71306 3.75883 7.87342 3.79688 8.04932V17.8796C3.75647 18.0492 3.66436 18.2021 3.53329 18.317C3.40222 18.432 3.23866 18.5033 3.06524 18.5212H2.29688V20.8546H8.29688V18.5212H6.79688V8.18793H6.8844L10.342 20.8546H13.054L16.5568 8.18793H16.6303V18.5212H15.1302V20.8546H22.2969V18.5212H21.5059C21.3365 18.4992 21.1778 18.4259 21.0511 18.3113C20.9244 18.1966 20.8357 18.046 20.7969 17.8796V8.04938C20.8336 7.87667 20.9205 7.71864 21.0466 7.59506C21.1727 7.47148 21.3325 7.38784 21.5059 7.35462Z" fill="#6B7688"/>
</svg>
