<svg width="25" height="25" viewBox="0 1 25 25" fill="none" xmlns="http://www.w3.org/2000/svg">
<g clip-path="url(#clip0_619_4423)">
<path d="M9.29688 15.188L8.54688 15.1865V15.188H9.29688Z" fill="#6B7688"/>
<path d="M16.0469 15.188H16.7969L16.0469 15.1865V15.188Z" fill="#6B7688"/>
<path d="M24.4019 12.9379C24.4019 11.2834 23.0564 9.93794 21.4019 9.93794C20.7404 9.93794 20.1119 10.1539 19.5989 10.5454C17.9249 9.38294 15.7319 8.68994 13.3994 8.51444L14.6579 5.56244L18.3194 6.41744C18.4364 7.54994 19.3844 8.43794 20.5469 8.43794C21.7874 8.43794 22.7969 7.42844 22.7969 6.18794C22.7969 4.94744 21.7874 3.93794 20.5469 3.93794C19.7609 3.93794 19.0694 4.34444 18.6674 4.95794L14.3879 3.95744C14.2157 3.9168 14.0348 3.93832 13.8769 4.0182C13.7191 4.09807 13.5946 4.23115 13.5254 4.39394L11.7854 8.47394C9.26688 8.56094 6.86688 9.27044 5.05488 10.5064C4.60671 10.1837 4.0782 9.99073 3.52748 9.94887C2.97675 9.90701 2.42515 10.0178 1.93334 10.2692C1.44153 10.5205 1.02856 10.9026 0.739843 11.3734C0.451128 11.8443 0.297856 12.3856 0.296882 12.9379C0.295731 13.4665 0.435671 13.9858 0.702258 14.4423C0.968845 14.8987 1.35242 15.2757 1.81338 15.5344C1.8018 15.6686 1.7963 15.8033 1.79688 15.9379C1.79688 20.0734 6.50688 23.4379 12.2969 23.4379C18.0854 23.4379 22.7969 20.0734 22.7969 15.9379C22.7969 15.8209 22.7924 15.7054 22.7849 15.5899C23.2729 15.3402 23.6823 14.9602 23.9677 14.4922C24.2531 14.0241 24.4034 13.4862 24.4019 12.9379ZM20.5469 5.43794C20.7462 5.43833 20.9372 5.51789 21.0778 5.65911C21.2185 5.80032 21.2973 5.99163 21.2969 6.19094C21.2965 6.39025 21.2169 6.58123 21.0757 6.72189C20.9345 6.86254 20.7432 6.94133 20.5439 6.94094C20.4452 6.94074 20.3475 6.92111 20.2564 6.88316C20.1653 6.84521 20.0826 6.78969 20.0129 6.71977C19.9433 6.64984 19.8881 6.56689 19.8505 6.47564C19.8129 6.38439 19.7937 6.28662 19.7939 6.18794C19.7941 6.08925 19.8137 5.99156 19.8517 5.90046C19.8896 5.80936 19.9451 5.72663 20.0151 5.65698C20.085 5.58734 20.1679 5.53215 20.2592 5.49457C20.3504 5.45698 20.4482 5.43774 20.5469 5.43794ZM7.04688 15.1879C7.04688 14.3614 7.72038 13.6879 8.54688 13.6879C9.37338 13.6879 10.0469 14.3614 10.0469 15.1879C10.0296 15.5742 9.86402 15.9388 9.58461 16.206C9.3052 16.4732 8.93349 16.6223 8.54688 16.6223C8.16028 16.6223 7.78857 16.4732 7.50916 16.206C7.22974 15.9388 7.06416 15.5742 7.04688 15.1879ZM15.7604 20.1634C14.753 20.8932 13.5408 21.2861 12.2969 21.2861C11.0529 21.2861 9.84079 20.8932 8.83338 20.1634C8.75114 20.1067 8.68106 20.0341 8.62726 19.9499C8.57347 19.8657 8.53703 19.7717 8.52009 19.6732C8.50316 19.5747 8.50607 19.4739 8.52865 19.3766C8.55123 19.2792 8.59303 19.1874 8.65159 19.1065C8.71015 19.0255 8.78429 18.9571 8.86967 18.9052C8.95504 18.8533 9.04992 18.819 9.14874 18.8043C9.24755 18.7895 9.34832 18.7947 9.44511 18.8195C9.5419 18.8442 9.63277 18.8881 9.71238 18.9484C10.4638 19.4939 11.3684 19.7876 12.2969 19.7876C13.2253 19.7876 14.13 19.4939 14.8814 18.9484C14.961 18.8881 15.0519 18.8442 15.1487 18.8195C15.2454 18.7947 15.3462 18.7895 15.445 18.8043C15.5438 18.819 15.6387 18.8533 15.7241 18.9052C15.8095 18.9571 15.8836 19.0255 15.9422 19.1065C16.0007 19.1874 16.0425 19.2792 16.0651 19.3766C16.0877 19.4739 16.0906 19.5747 16.0737 19.6732C16.0567 19.7717 16.0203 19.8657 15.9665 19.9499C15.9127 20.0341 15.8426 20.1067 15.7604 20.1634ZM16.0469 16.6879C15.6491 16.6879 15.2675 16.5299 14.9862 16.2486C14.7049 15.9673 14.5469 15.5858 14.5469 15.1879C14.5469 14.7901 14.7049 14.4086 14.9862 14.1273C15.2675 13.846 15.6491 13.6879 16.0469 13.6879C16.4447 13.6879 16.8262 13.846 17.1075 14.1273C17.3888 14.4086 17.5469 14.7901 17.5469 15.1879C17.5469 15.5858 17.3888 15.9673 17.1075 16.2486C16.8262 16.5299 16.4447 16.6879 16.0469 16.6879Z" fill="#6B7688"/>
</g>
<defs>
<clipPath id="clip0_619_4423">
<rect width="24" height="24" fill="white" transform="translate(0.296875 0.937988)"/>
</clipPath>
</defs>
</svg>
