<svg width="25" height="25" viewBox="0 0 23 25" fill="none" xmlns="http://www.w3.org/2000/svg">
<g clip-path="url(#clip0_619_4411)">
<path d="M24.2969 6.24653C23.3941 6.64029 22.4393 6.90197 21.4619 7.02353C22.4919 6.41247 23.262 5.44488 23.6264 4.30403C22.6619 4.87604 21.6067 5.27885 20.5064 5.49503C19.8317 4.7747 18.9561 4.27391 17.9931 4.05772C17.0302 3.84154 16.0244 3.91995 15.1066 4.28277C14.1888 4.64559 13.4014 5.27605 12.8465 6.09224C12.2917 6.90843 11.9951 7.87261 11.9954 8.85953C11.9954 9.24953 12.0284 9.62453 12.1094 9.98153C10.152 9.88557 8.23691 9.37755 6.48933 8.49071C4.74174 7.60386 3.20101 6.35816 1.96788 4.83503C1.3361 5.91782 1.14079 7.2007 1.4217 8.42244C1.70261 9.64418 2.43863 10.7129 3.47988 11.411C2.70101 11.3901 1.93859 11.1823 1.25687 10.805V10.859C1.25818 11.9952 1.65087 13.0962 2.36885 13.9767C3.08683 14.8573 4.08625 15.4635 5.19887 15.6935C4.77795 15.8045 4.34415 15.8589 3.90887 15.8555C3.59626 15.8611 3.28395 15.8329 2.97738 15.7715C3.29529 16.7481 3.90811 17.602 4.73147 18.2159C5.55482 18.8297 6.54822 19.1732 7.57488 19.199C5.83328 20.5611 3.68534 21.3 1.47438 21.2975C1.07088 21.2975 0.683875 21.2795 0.296875 21.23C2.5467 22.6798 5.16839 23.4468 7.84488 23.438C16.8989 23.438 21.8489 15.938 21.8489 9.43703C21.8489 9.21953 21.8414 9.00953 21.8309 8.80103C22.8013 8.10651 23.637 7.24085 24.2969 6.24653Z" fill="#6B7688"/>
</g>
<defs>
<clipPath id="clip0_619_4411">
<rect width="24" height="24" fill="white" transform="translate(0.296875 0.937988)"/>
</clipPath>
</defs>
</svg>
