<svg width="25" height="25" viewBox="0 0 25 25" fill="none" xmlns="http://www.w3.org/2000/svg">
<g clip-path="url(#clip0_619_4441)">
<path fill-rule="evenodd" clip-rule="evenodd" d="M23.2769 7.02799C22.6259 5.86999 21.9194 5.65699 20.4809 5.57599C19.0439 5.47849 15.4304 5.43799 12.2999 5.43799C9.16337 5.43799 5.54838 5.47849 4.11287 5.57449C2.67737 5.65699 1.96938 5.86849 1.31237 7.02799C0.641875 8.18449 0.296875 10.1765 0.296875 13.6835V13.6955C0.296875 17.1875 0.641875 19.1945 1.31237 20.339C1.96938 21.497 2.67587 21.707 4.11137 21.8045C5.54838 21.8885 9.16337 21.938 12.2999 21.938C15.4304 21.938 19.0439 21.8885 20.4824 21.806C21.9209 21.7085 22.6274 21.4985 23.2784 20.3405C23.9549 19.196 24.2969 17.189 24.2969 13.697V13.6895V13.685C24.2969 10.1765 23.9549 8.18449 23.2769 7.02799ZM9.29688 18.188V9.18799L16.7969 13.688L9.29688 18.188Z" fill="#6B7688"/>
</g>
<defs>
<clipPath id="clip0_619_4441">
<rect width="24" height="24" fill="white" transform="translate(0.296875 0.937988)"/>
</clipPath>
</defs>
</svg>
