<svg width="67" height="67" viewBox="0 0 67 67" fill="none" xmlns="http://www.w3.org/2000/svg">
<path d="M33.1937 1.93036C15.6971 1.93036 1.51367 16.1138 1.51367 33.6104C1.51367 51.107 15.6971 65.2904 33.1937 65.2904C50.6903 65.2904 64.8737 51.107 64.8737 33.6104C64.8737 16.1138 50.6903 1.93036 33.1937 1.93036ZM47.0537 25.9115H46.6676C46.6676 25.9115 45.5126 25.9115 45.5126 27.0665V40.1543C45.5126 40.1543 45.5126 41.3093 46.6676 41.3093H47.0537V44.3915H37.8137V41.3093H39.3548V26.9873H39.1997L34.4807 44.3915H30.3227L25.6466 26.9873H25.4948V41.3093H27.0326V44.3915H19.3337V41.3093H19.7198C19.7198 41.3093 20.8748 41.3093 20.8748 40.1543V27.0632C20.8748 27.0632 20.8748 25.9082 19.7198 25.9082H19.3337V22.8293H29.5505L33.1343 36.1646H33.2531L36.8666 22.8326H47.0537V25.9115Z" fill="black"/>
</svg>
